<?xml version="1.0" encoding="UTF-8"?>
<svg id="Layer_1" xmlns="http://www.w3.org/2000/svg" version="1.1" viewBox="0 0 480 480">
  <!-- Generator: Adobe Illustrator 29.0.0, SVG Export Plug-In . SVG Version: 2.1.0 Build 186)  -->
  <defs>
    <style>
      .st0 {
        fill: #0075bf;
      }

      .st1 {
        fill: #f2d8ea;
      }

      .st2 {
        fill: #ffed00;
      }
    </style>
  </defs>
  <g>
    <rect class="st2" x="352" y="400" width="24" height="16"/>
    <path class="st2" d="M240,64c28.2,0,51.5-24,55.4-48h-110.7c3.9,24,27.2,48,55.4,48Z"/>
    <path class="st2" d="M240,80c-37,0-67.5-32-71.5-64H16v24h72v16H16v72h80c4.4,0,8,3.4,8,7.8v304c0,13.2,10.8,24.2,24,24.2h224c13.2,0,24-11,24-24.2v-7.8h-32c-4.4,0-8-3.8-8-8.2v-32c0-4.4,3.6-7.8,8-7.8h32v-248.2c0-4.4,3.6-7.8,8-7.8h80V56h-72v-16h72v-24h-152.5c-4,32-34.5,64-71.5,64ZM264,119.8h16v16h-16v-16ZM200,119.8h16v16h-16v-16ZM224,303.8c0,4.4-3.6,8.2-8,8.2h-64c-4.4,0-8-3.8-8-8.2v-32c0-4.4,3.6-7.8,8-7.8h8v-40h-8c-4.4,0-8-3.8-8-8.2v-32c0-4.4,3.6-7.8,8-7.8h48c4.4,0,8,3.4,8,7.8v80.2h8c4.4,0,8,3.4,8,7.8v32ZM232,119.8h16v16h-16v-16ZM344,304c0,4.4-3.6,8-8,8h-88c-4.4,0-8-3.6-8-8v-120c0-4.4,3.6-8,8-8h88c4.4,0,8,3.6,8,8v120Z"/>
  </g>
  <g>
    <path class="st1" d="M328,192h-72v104h72v-104ZM312,272c0,4.4-3.6,8-8,8h-24c-4.4,0-8-3.6-8-8v-56c0-4.4,3.6-8,8-8h24c4.4,0,8,3.6,8,8v56Z"/>
    <path class="st1" d="M192,271.8v-79.8h-32v16h8c4.4,0,8,3.4,8,7.8v56c0,4.4-3.6,8.2-8,8.2h-8v16h48v-16h-8c-4.4,0-8-3.8-8-8.2Z"/>
  </g>
  <rect class="st1" x="288" y="224" width="8" height="40"/>
  <g>
    <path class="st0" d="M472,0H8C3.6,0,0,3.4,0,7.8v128c0,4.4,3.6,8.2,8,8.2h80v295.8c0,22.1,17.9,40.2,40,40.2h224c22.1,0,40-18.1,40-40.2V144h80c4.4,0,8-3.8,8-8.2V7.8c0-4.4-3.6-7.8-8-7.8ZM295.4,16c-3.9,24-27.2,48-55.4,48s-51.5-24-55.4-48h110.7ZM376,416h-24v-16h24v16ZM464,40h-72v16h72v72h-80c-4.4,0-8,3.4-8,7.8v248.2h-32c-4.4,0-8,3.4-8,7.8v32c0,4.4,3.6,8.2,8,8.2h32v7.8c0,13.2-10.8,24.2-24,24.2h-224c-13.2,0-24-11-24-24.2V135.8c0-4.4-3.6-7.8-8-7.8H16V56h72v-16H16v-24h152.5c4,32,34.5,64,71.5,64s67.5-32,71.5-64h152.5v24Z"/>
    <path class="st0" d="M216,264h-8v-80.2c0-4.4-3.6-7.8-8-7.8h-48c-4.4,0-8,3.4-8,7.8v32c0,4.4,3.6,8.2,8,8.2h8v40h-8c-4.4,0-8,3.4-8,7.8v32c0,4.4,3.6,8.2,8,8.2h64c4.4,0,8-3.8,8-8.2v-32c0-4.4-3.6-7.8-8-7.8ZM208,296h-48v-16h8c4.4,0,8-3.8,8-8.2v-56c0-4.4-3.6-7.8-8-7.8h-8v-16h32v79.8c0,4.4,3.6,8.2,8,8.2h8v16Z"/>
    <path class="st0" d="M344,184c0-4.4-3.6-8-8-8h-88c-4.4,0-8,3.6-8,8v120c0,4.4,3.6,8,8,8h88c4.4,0,8-3.6,8-8v-120ZM256,192h72v104h-72v-104Z"/>
    <path class="st0" d="M312,216c0-4.4-3.6-8-8-8h-24c-4.4,0-8,3.6-8,8v56c0,4.4,3.6,8,8,8h24c4.4,0,8-3.6,8-8v-56ZM296,264h-8v-40h8v40Z"/>
    <rect class="st0" x="232" y="119.8" width="16" height="16"/>
    <rect class="st0" x="264" y="119.8" width="16" height="16"/>
    <rect class="st0" x="200" y="119.8" width="16" height="16"/>
  </g>
</svg>