<?xml version="1.0" encoding="iso-8859-1"?>
<!-- Uploaded to: SVG Repo, www.svgrepo.com, Generator: SVG Repo Mixer Tools -->
<svg version="1.1" id="Layer_1" xmlns="http://www.w3.org/2000/svg" xmlns:xlink="http://www.w3.org/1999/xlink" 
	 viewBox="0 0 480 480" xml:space="preserve">
<g>
	<rect x="352" y="400" style="fill:#DA544A;" width="24" height="16"/>
	<path style="fill:#DA544A;" d="M240,64c28.152,0,51.456-24,55.36-48H184.64C188.544,40,211.848,64,240,64z"/>
	<path style="fill:#DA544A;" d="M240,80c-37,0-67.536-32-71.528-64H16v24h72v16H16v72h80c4.424,0,8,3.392,8,7.808v304
		c0,13.24,10.768,24.192,24,24.192h224c13.232,0,24-10.952,24-24.192V432h-32c-4.424,0-8-3.768-8-8.192v-32
		c0-4.416,3.576-7.808,8-7.808h32V135.808c0-4.416,3.576-7.808,8-7.808h80V56h-72V40h72V16H311.528C307.528,48,277,80,240,80z
		 M264,119.808h16v16h-16V119.808z M200,119.808h16v16h-16V119.808z M224,303.808c0,4.424-3.576,8.192-8,8.192h-64
		c-4.424,0-8-3.768-8-8.192v-32c0-4.416,3.576-7.808,8-7.808h8v-40h-8c-4.424,0-8-3.768-8-8.192v-32c0-4.416,3.576-7.808,8-7.808h48
		c4.424,0,8,3.392,8,7.808V264h8c4.424,0,8,3.392,8,7.808V303.808z M232,119.808h16v16h-16V119.808z M344,304c0,4.416-3.584,8-8,8
		h-88c-4.416,0-8-3.584-8-8V184c0-4.416,3.584-8,8-8h88c4.416,0,8,3.584,8,8V304z"/>
</g>
<g>
	<path style="fill:#E5E8E8;" d="M328,192h-72v104h72V192z M312,272c0,4.416-3.584,8-8,8h-24c-4.416,0-8-3.584-8-8v-56
		c0-4.416,3.584-8,8-8h24c4.416,0,8,3.584,8,8V272z"/>
	<path style="fill:#E5E8E8;" d="M192,271.808V192h-32v16h8c4.424,0,8,3.392,8,7.808v56c0,4.424-3.576,8.192-8,8.192h-8v16h48v-16h-8
		C195.576,280,192,276.232,192,271.808z"/>
</g>
<rect x="288" y="224" style="fill:#DA544A;" width="8" height="40"/>
<g>
	<path style="fill:#334C5B;" d="M472,0H8C3.576,0,0,3.392,0,7.808v128C0,140.232,3.576,144,8,144h80v295.808
		C88,461.864,105.944,480,128,480h224c22.056,0,40-18.136,40-40.192v-16v-32V144h80c4.424,0,8-3.768,8-8.192v-128
		C480,3.392,476.424,0,472,0z M295.36,16c-3.904,24-27.208,48-55.36,48s-51.456-24-55.36-48H295.36z M376,416h-24v-16h24V416z
		 M464,40h-72v16h72v72h-80c-4.424,0-8,3.392-8,7.808V384h-32c-4.424,0-8,3.392-8,7.808v32c0,4.424,3.576,8.192,8,8.192h32v7.808
		c0,13.24-10.768,24.192-24,24.192H128c-13.232,0-24-10.952-24-24.192v-304c0-4.416-3.576-7.808-8-7.808H16V56h72V40H16V16h152.472
		C172.464,48,203,80,240,80s67.528-32,71.528-64H464V40z"/>
	<path style="fill:#334C5B;" d="M216,264h-8v-80.192c0-4.416-3.576-7.808-8-7.808h-48c-4.424,0-8,3.392-8,7.808v32
		c0,4.424,3.576,8.192,8,8.192h8v40h-8c-4.424,0-8,3.392-8,7.808v32c0,4.424,3.576,8.192,8,8.192h64c4.424,0,8-3.768,8-8.192v-32
		C224,267.392,220.424,264,216,264z M208,296h-48v-16h8c4.424,0,8-3.768,8-8.192v-56c0-4.416-3.576-7.808-8-7.808h-8v-16h32v79.808
		c0,4.424,3.576,8.192,8,8.192h8V296z"/>
	<path style="fill:#334C5B;" d="M344,184c0-4.416-3.584-8-8-8h-88c-4.416,0-8,3.584-8,8v120c0,4.416,3.584,8,8,8h88
		c4.416,0,8-3.584,8-8V184z M256,192h72v104h-72V192z"/>
	<path style="fill:#334C5B;" d="M312,216c0-4.416-3.584-8-8-8h-24c-4.416,0-8,3.584-8,8v56c0,4.416,3.584,8,8,8h24
		c4.416,0,8-3.584,8-8V216z M296,264h-8v-40h8V264z"/>
	<rect x="232" y="119.808" style="fill:#334C5B;" width="16" height="16"/>
	<rect x="264" y="119.808" style="fill:#334C5B;" width="16" height="16"/>
	<rect x="200" y="119.808" style="fill:#334C5B;" width="16" height="16"/>
</g>
</svg>